# xmcd
#
# Track frame offsets:
#	182
#	12802
#	26747
#	39360
#	50375
#	62517
#	75865
#	86915
#	99040
#	110362
#	121455
#	130230
#	142797
#	157622
#
# Disc length: 2259 seconds
#
# Revision: 0
# Processed by: cddbd v1.5.2PL0 Copyright (c) Steve Scherf et al.
# Submitted via: EasyCDDAExtractor 8.2.3.1
#
DISCID=9708d10e
DTITLE=Gene Autry - Goodnight Irene
DYEAR=1900
DGENRE=Western
TTITLE0=Godnight Irene
TTITLE1=Mexicali Rose
TTITLE2=Have I Told You Lately That i Love Yoy
TTITLE3=Red River Valley
TTITLE4=Home On The Range
TTITLE5=South Of The Border
TTITLE6=You Are My Sunshine
TTITLE7=Someday You'll Want Me To Want You
TTITLE8=I Love You Because
TTITLE9=Buttons And Bows
TTITLE10=In A Little Spanish Town
TTITLE11=Back In The Saddle Again
TTITLE12=(Take Me Back To My (Boots And Saddle)
TTITLE13=That Silver Haired Daddy Of Mine
EXTD=
EXTT0=
EXTT1=
EXTT2=
EXTT3=
EXTT4=
EXTT5=
EXTT6=
EXTT7=
EXTT8=
EXTT9=
EXTT10=
EXTT11=
EXTT12=
EXTT13=
PLAYORDER=
